<svg version="1.1" xmlns="http://www.w3.org/2000/svg" style="display: block;" viewBox="0 0 2048 1071" width="1408" height="736" preserveAspectRatio="none">
<path transform="translate(0,0)" fill="rgb(12,49,77)" d="M 1017.96 210.046 C 1064.28 247.689 1117.55 287.113 1165.26 323.543 L 1165.71 624.195 C 1179.1 639.989 1196.91 658.497 1211.28 673.535 C 1212.4 691.952 1211.88 717 1211.91 735.714 L 1212.02 841.903 L 1271.11 841.851 L 1271.07 863.574 L 1019.5 863.677 L 765.432 863.718 L 765.546 841.892 L 824.344 841.882 L 824.293 674.585 C 839.694 657.748 855.225 641.03 870.885 624.433 C 870.277 589.27 870.829 552.518 870.822 517.253 L 870.837 324.566 C 918.702 286.335 969.496 248.065 1017.96 210.046 z"/>
<path transform="translate(0,0)" fill="rgb(255,255,255)" d="M 1017.39 237.261 C 1020.07 238.843 1024.01 242.09 1026.49 244.081 C 1064.99 274.981 1105.65 304.01 1143.91 335.141 L 1144.02 632.096 C 1158.81 648.672 1174.62 666.607 1190.01 682.484 L 1190.01 841.763 L 1019.5 841.841 L 846.029 841.751 L 845.931 682.608 C 861.203 666.095 877.093 649.308 891.885 632.426 L 891.964 335.289 C 934.091 303.021 975.903 270.344 1017.39 237.261 z"/>
<path transform="translate(0,0)" fill="rgb(14,163,146)" d="M 1017.29 264.385 C 1052.26 290.628 1088.97 318.662 1123.43 345.573 L 1123.72 820.274 L 1017.56 820.246 L 912.388 820.233 C 913.168 767.102 912.296 711.661 912.267 658.298 L 912.091 346.181 C 943.624 321.212 987.673 290.315 1017.29 264.385 z"/>
<path transform="translate(0,0)" fill="rgb(98,189,173)" d="M 1017.29 264.385 C 1017.62 307.674 1017.61 350.966 1017.26 394.255 C 1017.31 535.623 1015.97 679.121 1017.56 820.246 L 912.388 820.233 C 913.168 767.102 912.296 711.661 912.267 658.298 L 912.091 346.181 C 943.624 321.212 987.673 290.315 1017.29 264.385 z"/>
</svg>