<svg version="1.1" xmlns="http://www.w3.org/2000/svg" style="display: block;" viewBox="0 0 2048 1071" width="1408" height="736" preserveAspectRatio="none">
<path transform="translate(0,0)" fill="rgb(9,49,77)" d="M 992.565 159.807 C 994.692 160.016 1110.14 248.34 1121.98 259.083 L 1122.11 519.26 C 1134.73 533.702 1148.91 548.586 1161.95 562.778 L 1162.13 707.988 L 1213.81 707.993 L 1213.8 727.82 L 998.5 727.52 C 924.288 727.527 846.962 726.453 773.053 727.856 L 773.001 708.005 L 823.945 707.93 L 823.949 563.306 C 832.356 552.288 853.936 530.08 864.106 518.948 C 862.929 432.977 864.669 345.607 864.079 259.375 C 867.129 256.633 870.467 254.084 873.751 251.622 C 913.771 221.625 952.493 189.697 992.565 159.807 z"/>
<path transform="translate(0,0)" fill="rgb(255,255,255)" d="M 992.991 183.018 C 1027.97 211.11 1069.57 240.603 1102.95 269.143 L 1103.05 526.321 C 1110.23 536.142 1133.84 560.322 1143.14 570.285 C 1143.68 615.764 1143.2 662.417 1143.17 707.983 L 994.5 707.926 L 842.875 707.998 L 842.928 570.337 C 856.423 555.875 869.749 541.255 882.901 526.48 L 883.105 269.197 C 919.684 240.365 956.947 212.664 992.991 183.018 z"/>
<path transform="translate(0,0)" fill="rgb(14,167,147)" d="M 993.169 207.495 C 1020.59 226.744 1046.8 248.922 1073.57 269.174 C 1077.34 272.027 1081.56 275.269 1085.11 278.353 C 1086.09 328.053 1085.33 379.639 1085.37 429.481 L 1085.43 689.054 L 993.058 688.98 L 900.993 688.944 L 900.848 278.19 C 931.688 255.193 962.16 229.828 993.169 207.495 z"/>
<path transform="translate(0,0)" fill="rgb(98,192,174)" d="M 900.848 278.19 C 931.688 255.193 962.16 229.828 993.169 207.495 C 992.031 235.403 992.811 267.263 992.794 295.586 L 992.744 458.069 L 992.708 606.301 C 992.697 632.151 991.888 663.621 993.058 688.98 L 900.993 688.944 L 900.848 278.19 z"/>
<path transform="translate(0,0)" fill="rgb(9,49,77)" d="M 660.422 791.669 C 695.971 784.173 730.839 807.012 738.17 842.595 C 745.501 878.179 722.501 912.94 686.885 920.106 C 651.5 927.226 617.015 904.409 609.732 869.058 C 602.448 833.707 625.105 799.117 660.422 791.669 z"/>
<path transform="translate(0,0)" fill="rgb(255,255,255)" d="M 665.541 818.831 C 686.268 814.242 706.762 827.426 711.178 848.191 C 715.593 868.955 702.237 889.338 681.437 893.579 C 660.881 897.771 640.791 884.606 636.427 864.087 C 632.064 843.567 645.059 823.367 665.541 818.831 z"/>
<path transform="translate(0,0)" fill="rgb(14,167,147)" d="M 1282.33 787.397 L 1296 787.249 L 1295.98 840.759 C 1336.41 790.451 1405.66 852.948 1363.29 904.452 C 1362.74 904.978 1362.19 905.496 1361.63 906.005 C 1340.78 925.057 1314.27 922.063 1295.81 901.554 L 1295.54 916.967 L 1282.21 917.049 C 1283.39 875.041 1282 829.859 1282.33 787.397 z"/>
<path transform="translate(0,0)" fill="rgb(255,255,255)" d="M 1321.36 836.153 C 1369.02 832.192 1375.56 892.427 1335.63 904.733 C 1287.43 907.946 1282.88 848.556 1321.36 836.153 z"/>
<path transform="translate(0,0)" fill="rgb(9,49,77)" d="M 865.218 821.211 C 869.749 820.851 874.298 820.749 878.841 820.905 C 912.315 822.273 923.105 848.377 922.001 877.874 L 851.655 877.997 C 854.092 884.386 855.852 887.203 861.083 891.624 C 876.533 904.682 895.868 887.808 901.694 887.309 L 905.936 891.029 L 917.238 902.166 C 898.112 919.957 868.805 925.338 846.136 910.953 C 835.291 903.992 827.683 892.981 825.006 880.375 C 818.48 850.221 835.833 827.239 865.218 821.211 z"/>
<path transform="translate(0,0)" fill="rgb(255,255,255)" d="M 869.304 842.157 C 886.165 840.894 890.435 846.826 896.781 861.007 C 891.554 861.383 882.279 861.095 876.75 861.094 L 851.596 861.132 C 852.4 858.694 853.357 856.309 854.463 853.992 C 857.954 846.753 862.144 844.714 869.304 842.157 z"/>
<path transform="translate(0,0)" fill="rgb(9,49,77)" d="M 967.823 821.369 C 988.497 818.496 1015.72 824.256 1019.33 847.788 C 1022.55 868.773 1020.93 895.401 1020.77 916.803 C 1013.77 916.919 999.426 918.308 994.477 913.603 C 994.86 911.89 995.217 910.518 995.708 908.829 L 995.022 908.276 C 989.603 908.451 981.486 917.205 971.002 918.398 C 957.953 919.882 950.257 917.97 939.507 910.245 C 928.809 898.704 928.239 886.047 937.103 872.305 C 948.252 855.02 986.663 865.685 993.353 857.667 C 993.561 856.138 993.571 854.384 992.756 853.027 C 982.171 835.398 958.881 844.772 944.997 851.203 C 942.466 844.563 939.381 837.465 936.661 830.843 C 946.662 825.158 956.588 822.846 967.823 821.369 z"/>
<path transform="translate(0,0)" fill="rgb(255,255,255)" d="M 967.779 877.155 C 974.987 876.922 987.897 874.704 992.777 878.938 C 996.928 887.032 988.706 894.012 982.571 897.582 C 959.981 904.226 947.672 884.196 967.779 877.155 z"/>
<path transform="translate(0,0)" fill="rgb(14,167,147)" d="M 1209.14 823.237 C 1211.76 823.029 1214.39 822.884 1217.01 822.801 C 1254.59 821.859 1256.84 848.202 1255.62 877.976 C 1255.12 890.46 1255.54 904.465 1255.81 917.055 L 1241.95 917.009 C 1241.81 913.11 1241.32 908.625 1240.98 904.69 C 1224.96 921.51 1196.16 924.718 1180.87 905.525 C 1178.38 900.662 1176.54 895.394 1176.46 889.921 C 1176.04 859.14 1221.75 863.175 1241.44 863.128 C 1241.06 826.593 1209.4 831.945 1186.31 846.562 C 1184.44 842.89 1182.02 838.779 1180 835.122 C 1190.49 828.031 1196.88 825.508 1209.14 823.237 z"/>
<path transform="translate(0,0)" fill="rgb(255,255,255)" d="M 1208.97 874.185 C 1218.88 873.607 1231.03 873.913 1241.11 873.907 C 1241.26 879.257 1241 885.287 1240.89 890.687 C 1236.19 898.771 1232.4 900.926 1224.21 904.64 C 1187.64 910.995 1178.67 880.29 1208.97 874.185 z"/>
<path transform="translate(0,0)" fill="rgb(9,49,77)" d="M 763.808 800.487 L 789.28 800.214 L 789.402 824.179 L 814.005 824.091 L 814.038 845.195 L 789.836 845.203 C 790.142 864.611 781.175 906.723 812.904 892.279 L 818.982 910.586 C 818.418 921.152 765.262 926.141 763.611 892.955 C 763.046 881.606 762.769 858.241 762.902 845.911 L 747.992 845.81 L 747.945 824.237 L 762.706 824.232 C 762.646 819.294 761.942 803.843 763.808 800.487 z"/>
<path transform="translate(0,0)" fill="rgb(14,167,147)" d="M 1084.13 793.782 L 1098.96 793.859 L 1099.03 903.975 C 1121.25 903.741 1143.95 903.958 1166.21 903.967 L 1166.15 917.142 C 1139.08 916.8 1111.46 917.057 1084.35 917.035 C 1084.57 875.951 1084.5 834.865 1084.13 793.782 z"/>
</svg>