<svg version="1.1" xmlns="http://www.w3.org/2000/svg" style="display: block;" viewBox="557 426 957 195" width="957" height="195">
<path transform="translate(0,0)" fill="rgb(10,48,79)" d="M 642.311 452.281 C 750.113 438.029 770.019 584.111 668.235 599.831 C 645.243 601.539 625.675 600.083 606.315 586.084 C 590.641 574.595 580.207 557.319 577.334 538.099 C 570.475 494.119 599.142 458.989 642.311 452.281 z"/>
<path transform="translate(0,0)" fill="rgb(255,255,255)" d="M 650.893 481.454 C 675.675 479.033 697.738 497.133 700.207 521.909 C 702.677 546.686 684.62 568.785 659.848 571.303 C 635.008 573.828 612.834 555.711 610.358 530.865 C 607.881 506.019 626.042 483.882 650.893 481.454 z"/>
<path transform="translate(0,0)" fill="rgb(10,48,79)" d="M 1389.93 446.806 L 1422.04 446.614 C 1422.23 464.682 1422.27 482.75 1422.15 500.819 C 1429.01 494.072 1437.76 489.569 1447.24 487.908 C 1501.45 478.39 1524.58 541.936 1494.34 583.335 C 1475.45 603.912 1441.94 607.027 1421 587.576 L 1420.61 598.712 L 1389.98 598.793 L 1389.93 446.806 z"/>
<path transform="translate(0,0)" fill="rgb(255,255,255)" d="M 1444.53 514.169 C 1482.59 514.606 1485.99 563.37 1452.58 573.951 C 1413.94 576.18 1410.49 522.801 1444.53 514.169 z"/>
<path transform="translate(0,0)" fill="rgb(10,48,79)" d="M 885.727 487.299 C 911.449 484.388 937.122 495.996 946.065 521.558 C 949.988 532.77 949.892 541.556 949.457 553.246 C 940.585 553.161 871.35 551.87 868.134 554.487 C 867.944 564.576 882.823 572.36 891.537 573.799 C 906.294 576.236 912.204 570.284 924.517 564.283 C 925.443 563.832 927.18 566.003 927.903 566.688 L 942.048 581.485 C 921.02 603.771 881.403 606.669 856.66 589.162 C 844.865 580.725 836.946 567.912 834.674 553.589 C 828.759 518.079 851.147 492.218 885.727 487.299 z"/>
<path transform="translate(0,0)" fill="rgb(255,255,255)" d="M 886.196 513.2 C 905.844 511.352 912.923 516.839 919.402 534.522 L 899.5 534.779 L 866.571 534.886 C 870.243 522.347 874.331 518.187 886.196 513.2 z"/>
<path transform="translate(0,0)" fill="rgb(10,48,79)" d="M 1308.74 487.429 C 1309.64 487.357 1310.54 487.311 1311.44 487.291 C 1334.3 486.887 1359.17 495.864 1362.49 520.314 C 1365.65 543.668 1364.1 574.863 1364 598.757 L 1332.47 598.766 L 1332.79 586.765 C 1313.56 604.151 1285.76 605.903 1266.36 587.845 C 1256.63 574.162 1257.68 565.382 1264.56 549.881 C 1273.97 528.663 1326.46 539.705 1331.34 532.183 C 1330.86 504.777 1290.32 515.502 1275.12 523.709 C 1271.53 516.117 1268.11 508.442 1264.88 500.691 C 1278.66 491.664 1292.56 488.555 1308.74 487.429 z"/>
<path transform="translate(0,0)" fill="rgb(255,255,255)" d="M 1303.65 553.287 C 1312.5 552.909 1322.7 553.094 1331.65 553.043 C 1331.63 556.901 1331.12 561.768 1330.82 565.693 C 1327.38 571.584 1325.4 573.382 1319.52 576.727 C 1293.67 584.66 1279.85 560.471 1303.65 553.287 z"/>
<path transform="translate(0,0)" fill="rgb(10,48,79)" d="M 1007.73 487.388 C 1008.98 487.217 1010.24 487.114 1011.51 487.081 C 1026.25 486.734 1042.09 488.253 1053.19 499.051 C 1066.7 512.196 1065.53 531.586 1065.58 548.896 C 1065.62 565.492 1065.71 582.105 1065.76 598.709 L 1034.61 598.656 C 1034.66 596.172 1035.25 588.863 1034.01 587.517 C 1023.93 595.284 1019.82 599.293 1005.56 600.242 C 991.332 601.189 980.154 598.317 969.319 588.936 C 956.875 572.456 958.385 547.356 979.918 539.633 C 995.529 534.034 1015.2 535.462 1031.85 534.501 L 1032.74 533.061 C 1032.34 503.967 993.076 515.175 976.677 523.533 L 966.73 499.984 C 979.101 492.359 993.427 488.854 1007.73 487.388 z"/>
<path transform="translate(0,0)" fill="rgb(255,255,255)" d="M 1003.52 553.32 C 1012.41 552.687 1024.08 552.941 1033.17 552.891 C 1033.13 565.222 1032.76 570.171 1021.72 576.47 C 997.18 585.085 980.27 562.17 1003.52 553.32 z"/>
<path transform="translate(0,0)" fill="rgb(10,48,79)" d="M 1145.88 454.195 L 1179.23 454.078 L 1179.74 570.861 L 1251.3 570.855 L 1251.23 598.882 C 1216.29 598.52 1180.69 598.894 1145.7 598.909 C 1146.41 551.29 1145.65 502.043 1145.88 454.195 z"/>
<path transform="translate(0,0)" fill="rgb(10,48,79)" d="M 761.173 462.298 L 793.913 462.1 L 793.928 490.731 C 803.135 490.843 812.665 490.469 821.894 490.227 L 821.91 515.469 C 812.829 515.208 803.199 515.33 794.071 515.291 C 794.136 535.13 784.61 589.349 819.518 569.809 L 825.357 585.264 C 826.39 587.814 827.856 590.371 827.328 592.889 C 820.334 598.596 809.042 599.881 800.144 600.103 C 751.964 601.303 760.894 549.373 761.151 515.68 L 744.368 515.691 L 744.169 490.858 L 761.093 490.3 L 761.173 462.298 z"/>
</svg>